<svg id="blob3" width="416" height="250" viewBox="0 0 416 250" fill="none" xmlns="http://www.w3.org/2000/svg">
  <path d="M282.25 36C312.25 52.75 342.75 69.25 368.5 95C394.5 120.75 416 155.25 415.75 190C415.5 224.5 393.75 258.75 370.75 289.75C348 320.75 324 348 294.25 359.5C264.25 371.25 228.75 366.75 195 363.5C161.25 360.25 129.25 357.75 103.25 344C77.25 330.25 57.25 305.25 38.75 277.5C20 250 3 220 1 188.75C-0.999996 157.75 12.25 125.5 30.5 97.5C49 69.5 72.5 46 100.5 28.25C128.5 10.25 160.75 -1.75001 191.75 0.499992C222.75 2.99999 252.25 19.5 282.25 36Z" fill="url(#paint0_linear)"/>
  <defs>
    <linearGradient id="paint0_linear" x1="208.276" y1="0.22934" x2="208.276" y2="367.127" gradientUnits="userSpaceOnUse">
      <stop stop-color="#FF3C8A"/>
      <stop offset="1" stop-color="#AD00FF"/>
    </linearGradient>
  </defs>
</svg>
