<svg id="blob1" width="213" height="249" viewBox="0 0 213 249" fill="none" xmlns="http://www.w3.org/2000/svg">
  <path d="M152.735 28.6053C171.556 41.015 187.981 55.0363 198.417 72.281C209.025 89.6867 213.474 110.155 212.96 130.3C212.447 150.607 206.972 170.591 195.68 186.386C184.388 202.341 167.107 214.267 148.8 225.226C130.493 236.185 110.988 246.339 90.1147 248.434C69.4123 250.529 47.3411 244.566 29.2051 233.446C11.0691 222.325 -3.13167 206.048 -15.7926 188.158C-28.6247 170.108 -39.9169 150.285 -36.3239 132.557C-32.731 114.828 -14.4239 98.8731 -3.64495 77.7606C7.30508 56.648 10.5559 30.217 25.0989 15.3898C39.6419 0.723856 65.6482 -2.33827 89.0881 1.52968C112.699 5.23647 133.915 16.0345 152.735 28.6053Z" fill="url(#paint0_linear)"/>
    <defs>
      <linearGradient id="paint0_linear" x1="88" y1="0" x2="88" y2="248.849" gradientUnits="userSpaceOnUse">
        <stop stop-color="#FF3C8A"/>
        <stop offset="1" stop-color="#AD00FF"/>
      </linearGradient>
    </defs>
</svg>
