<svg id="blob2" width="119" height="176" viewBox="0 0 119 176" fill="none" xmlns="http://www.w3.org/2000/svg">
  <path d="M129.062 19.7034C140.332 27.4788 148.937 39.6194 149.906 52.9876C150.876 66.3558 144.089 80.8153 140.696 93.2287C137.303 105.642 137.424 115.736 137.787 131.56C138.03 147.384 138.515 168.8 130.759 174.256C122.881 179.713 106.763 169.346 92.2208 166.072C77.7994 162.662 64.9535 166.345 50.1686 165.39C35.2625 164.435 18.2962 158.979 12.6004 146.429C6.78334 134.015 12.2368 114.782 9.81305 93.9107C7.51048 73.0399 -2.79049 50.5322 0.723958 33.6173C4.11722 16.7024 21.3259 5.38033 38.5346 1.56084C55.8644 -2.25865 73.1943 1.69726 88.7063 5.24393C104.218 8.7906 117.913 12.0645 129.062 19.7034Z" fill="url(#paint0_linear)"/>
  <defs>
    <linearGradient id="paint0_linear" x1="75" y1="0" x2="75" y2="175.815" gradientUnits="userSpaceOnUse">
      <stop stop-color="#AD00FF"/>
      <stop offset="1" stop-color="#FF3C8A"/>
    </linearGradient>
  </defs>
</svg>
